<?xml version="1.0" encoding="utf-8"?>
<!-- Generator: Adobe Illustrator 22.0.0, SVG Export Plug-In . SVG Version: 6.00 Build 0)  -->
<svg version="1.1" id="Layer_1" xmlns="http://www.w3.org/2000/svg" xmlns:xlink="http://www.w3.org/1999/xlink" x="0px" y="0px"
	 width="2000px" height="1400px" viewBox="0 0 2000 1400" enable-background="new 0 0 2000 1400" xml:space="preserve">
<rect fill="#ffffff" width="2000" height="1400"/>
<path fill="#AF5B00" d="M564.6,328.5c-16.2-39.8-34.5-75.5-101.3-91.3s-99.8,25.1-152,7.6c-52.2-17.5-52.1-21.1-81.2-16.9
	c-29,4.2-36,19.9-50.2,35.3c-14.2,15.5-27.9,15-29.1,28.7c-1.1,13.7,9.6,15.5,9.6,15.5c6.1,13.9,24,19.5,67.2,25.2
	s26.2,70.9,58.1,101.6c-22.4,2.1-19.2,13.1-19.2,13.1c8-2.6,48.6,5.8,50.9,1.6s-5.5-38.7-5.5-38.7c53.4,26.2,100.3,4.6,100.3,4.6
	c-17.4-22.9-8.8-65.3-8.8-65.3s-0.2,53.5,32.8,84.1c0,0-34,1.8-57.1-0.3c-23.1-2.1-32.9,12.7-32.9,12.7s19.5-0.1,28.9,0.9
	c9.4,1,115.8,18.7,113.6-4.5c-2.2-23.2-12.7-35.1-12.7-35.1s17.5,17.2,21.4,31.7c0,0,38.9,2.6,54.5-10.6c0,0,132.8,7.7,160.8-11
	C598.8,416.3,590.8,392.9,564.6,328.5z M257.9,279c0,0,18.5-28.7-4.3-26.7c0,0,0.7-5.4,10.4-2.4S267.7,269,257.9,279z"/>
<g>
	<ellipse fill="#1D1200" cx="1029.4" cy="428.1" rx="128.3" ry="32"/>
	<path fill="#AF5B00" d="M918.3,437.9c0,0,107,39.9,202.7,4.4c0,0-9.2-47-17.8-61.9c0,0,63.6-43.6,65.9-49.9c1-2.8,6-5.2,10.3-6.3
		c9.2-2.3,5.7-21.2,5.7-21.2s21.8-1.7,14.9-16s-60.8-68.2-150.2-63c-89.4,5.2-80.8,87.7-88.8,111.2S928.1,429.4,918.3,437.9z
		 M1023.1,254.9c4-5.2,2.9-10.9,2.9-10.9s6.9,1.7,4,10.3c-2.9,8.6-1.1,27.5,8.6,22.4c0,0-6.9,12-12.6,6.3
		C1020.2,277.3,1019.1,260.1,1023.1,254.9z"/>
</g>
<path fill="#AF5B00" d="M1124.7,1177.5c0,0,8.3-157.1-13-224.8c-21.3-67.8-36.1-142.7-35.2-194.6c0.9-51.8-13-93.5-49.1-111.1
	c-36.1-17.6-116.4-0.9-135.2,25c-7.4,10.2,4.6,13.9,4.6,13.9s-10.2,7.4,5.6,20.4c15.7,13,33.3,37,33.3,37s-26.9,42.6-42.1,100.9
	c0,0-43.1,39.8-30.1,89.8c0,0,6.5-32.4,23.1-28.7c16.7,3.7,12.1,9.9,11.7,50.9c-0.2,24.2,15.1,178.7,53.1,241.7
	c0,0-33.3-9.3-61.1,20.4h122.2c0,0,25.9-2.8,8.3-33.3c0,0,30.3,50.8,86.1,17.6c0,0,49.1,25.9,134.3,13
	C1241.4,1215.5,1155.3,1206.2,1124.7,1177.5z M995.1,697c0,0-10.9-13.3,15.7-28.7C1010.8,668.3,1022.9,679.4,995.1,697z"/>
<path fill="#AF5B00" d="M512.4,1203.5c-29.9-4-13-5.3-20-57.2c-7-51.9,60.2-187.3,38.3-197.2c-22-10-67.9,83.8-67.9,83.8v-17
	l-17.4,28.9c-2.4-20,0-31.9,0-31.9l-11.5,15c0,0-2-19,0-40.9c2-22,23.9-64.9,23.9-64.9c54.1-74.8,71.8-109.8,61.9-126.7
	c-10-17-35.9-71.8-36.9-84.8c-1-13,13-26.9,0-41.9c-13-15-22-6-22-6c-21-13-54.9-7-54.9-7s-33.9-6-54.9,7c0,0-9-9-22,6
	c-13,15,1,28.9,0,41.9c-1,13-26.9,67.9-36.9,84.8c-10,17,7.8,51.9,61.9,126.7c0,0,22,42.9,23.9,64.9c2,22,0,40.9,0,40.9l-11.5-15
	c0,0,2.4,12,0,31.9l-17.4-28.9v17c0,0-45.9-93.8-67.9-83.8s45.2,145.4,38.3,197.2c-7,51.9,10,53.2-20,57.2c-29.9,4-45.9,23-45.9,23
	s147.4,23,152.3-27.9c5,50.9,152.3,27.9,152.3,27.9S542.3,1207.5,512.4,1203.5z M405.9,747.8c-13.6,0-24.7-16-24.7-23.3
	c0-7.4,11-13.3,24.7-13.3s24.7,6,24.7,13.3C430.6,731.9,419.6,747.8,405.9,747.8z"/>
<path fill="#AF5B00" d="M1781,206.4c-16.1-8.1-22.1-28.8-30.9-32.2c-48-18.5-83.9,12.7-83.9,12.7c-5.4-4-18.8,4-24.8,16.8
	c-6,12.7,0,22.1,0,22.1c-6.7,14.8-10.1,46.5-10.1,46.5s-45,9.2-81.2,68c-36.2,58.8-38.9,113-45,133.7c-6,20.8-103.3,38.2-103.3,38.2
	h183.8h82.5c-2-13.4-11.4-20.1-11.4-20.1l-11.4-104.7c0,0,18.1,85.2,22.1,103.3c4,18.1,18.8,21.5,18.8,21.5h52.3
	c-2.7-14.8-26.2-18.8-26.2-18.8s-12.7-32.9-8.1-69.8s28.8-136.9,28.8-136.9s42.9-17.4,47.6-26.2c4.7-8.7,16.1-26.8,16.1-26.8
	C1803.8,225.2,1797.1,214.5,1781,206.4z M1664.1,212.7c-1.4,11,5,14.7,5,14.7s-17.7-8.5-8.7-23s15.2-7.5,15.2-7.5
	S1665.5,201.7,1664.1,212.7z"/>
<path fill="#AF5B00" d="M1352.4,1192.5c0,0,82.7,5.3,91.3-42c8.7-47.3-28-126.3,76.7-174c26.1-11.9,93.7-11.3,119.2-8
	c25.5,3.3,64.8-36.8,77.5-47.3c26.7-22.3,61.3-18.7,80,0c18.7,18.7,43.3,53.3,36,59.3c-7.3,6-13.3,6-13.3,6s0.7,6,0,9.3
	c-0.7,3.3,12-7.3,20.7,3.3s14.7,21.3,0,28c-14.7,6.7-10,1.3-18,14c-8,12.7-63.3,56-84,51.3s-73.3-51.3-73.3-51.3s37.3,46.7,60.7,58
	c0,0-42,63.3-109.3,76.7c0,0-0.7,12,14,13.3c14.7,1.3,46.7,13.3,46.7,30h-122.7c0,0-33.3-8-33.3-41.3
	C1521,1177.8,1410.4,1224.5,1352.4,1192.5z"/>
</svg>
